<svg width="1169" height="1109" xmlns="http://www.w3.org/2000/svg" xmlns:xlink="http://www.w3.org/1999/xlink" xml:space="preserve" overflow="hidden"><defs><filter id="fx0" x="-10%" y="-10%" width="120%" height="120%" filterUnits="userSpaceOnUse" primitiveUnits="userSpaceOnUse"><feComponentTransfer color-interpolation-filters="sRGB"><feFuncR type="discrete" tableValues="0.000000 0.000000"/><feFuncG type="discrete" tableValues="0.000000 0.000000"/><feFuncB type="discrete" tableValues="0.000000 0.000000"/><feFuncA type="linear" slope="0.431373" intercept="0.000000"/></feComponentTransfer><feGaussianBlur stdDeviation="7.700481 7.700481"/></filter><clipPath id="clip1"><path d="M1513.63 1508.5C1480.97 1508.5 1454.5 1534.97 1454.5 1567.63L1454.5 2229.37C1454.5 2262.03 1480.97 2288.5 1513.63 2288.5L2174.37 2288.5C2207.03 2288.5 2233.5 2262.03 2233.5 2229.37L2233.5 1567.63C2233.5 1534.97 2207.03 1508.5 2174.37 1508.5ZM1214 1352 2383 1352 2383 2461 1214 2461Z" fill-rule="evenodd" clip-rule="evenodd"/></clipPath><clipPath id="clip2"><rect x="1.28284" y="1.28418" width="828.107" height="829.105"/></clipPath></defs><g transform="translate(-1214 -1352)"><g><g clip-path="url(#clip1)"><g clip-path="url(#clip2)" filter="url(#fx0)" transform="translate(1456 1510)"><g><g><path d="M26.8843 85.8527C26.8843 53.2861 53.2848 26.8856 85.8514 26.8856L744.822 26.8856C777.388 26.8856 803.789 53.2861 803.789 85.8527L803.789 745.82C803.789 778.387 777.388 804.787 744.822 804.787L85.8514 804.787C53.2848 804.787 26.8843 778.387 26.8843 745.82Z" stroke="#000000" stroke-width="5" stroke-linecap="butt" stroke-linejoin="miter" stroke-miterlimit="8" stroke-opacity="1" fill="#000000" fill-rule="evenodd" fill-opacity="1"/></g></g></g></g><path d="M1454.5 1567.63C1454.5 1534.97 1480.97 1508.5 1513.63 1508.5L2174.37 1508.5C2207.03 1508.5 2233.5 1534.97 2233.5 1567.63L2233.5 2229.37C2233.5 2262.03 2207.03 2288.5 2174.37 2288.5L1513.63 2288.5C1480.97 2288.5 1454.5 2262.03 1454.5 2229.37Z" stroke="#000000" stroke-width="4.58333" stroke-linecap="butt" stroke-linejoin="miter" stroke-miterlimit="8" stroke-opacity="1" fill="#000000" fill-rule="evenodd" fill-opacity="1"/><text fill="#FFFFFF" fill-opacity="1" font-family="Calibri,Calibri_MSFontService,sans-serif" font-style="normal" font-variant="normal" font-weight="700" font-stretch="normal" font-size="527" text-anchor="start" direction="ltr" writing-mode="lr-tb" unicode-bidi="normal" text-decoration="none" transform="matrix(1 0 0 1 1535.86 2005)">Pa</text><text fill="#FFFFFF" fill-opacity="0.501961" font-family="Calibri,Calibri_MSFontService,sans-serif" font-style="normal" font-variant="normal" font-weight="700" font-stretch="normal" font-size="73" text-anchor="start" direction="ltr" writing-mode="lr-tb" unicode-bidi="normal" text-decoration="none" transform="matrix(1 0 0 1 2025.13 2213)">m</text><text fill="#FFFFFF" fill-opacity="0.501961" font-family="Calibri,Calibri_MSFontService,sans-serif" font-style="normal" font-variant="normal" font-weight="700" font-stretch="normal" font-size="73" text-anchor="start" direction="ltr" writing-mode="lr-tb" unicode-bidi="normal" text-decoration="none" transform="matrix(1 0 0 1 2084.72 2213)">oo   </text></g></g></svg>
